<svg width="40" height="40" viewBox="0 0 100 100" xmlns="http://www.w3.org/2000/svg">
  <defs>
    <linearGradient id="grad2" x1="0%" y1="0%" x2="100%" y2="100%">
      <stop offset="0%" style="stop-color:#EC4899;stop-opacity:1" />
      <stop offset="100%" style="stop-color:#F87171;stop-opacity:1" />
    </linearGradient>
  </defs>
  <path fill="url(#grad2)" d="M50,5 C70,5 90,20 95,40 C100,60 80,80 60,95 C40,90 20,70 10,50 C5,30 30,5 50,5 Z" />
  <path d="M50,25 C65,35 70,50 60,65 C50,75 35,70 30,55 C25,40 35,20 50,25 Z" fill="white" opacity="0.8"/>
  <path d="M50,35 C60,42 63,53 58,60 C53,67 43,65 40,57 C37,49 40,38 50,35 Z" fill="white"/>
</svg>
